<svg xmlns="http://www.w3.org/2000/svg" xmlns:xlink="http://www.w3.org/1999/xlink" width="1366" zoomAndPan="magnify" viewBox="0 0 1024.5 576" height="768" preserveAspectRatio="xMidYMid meet" version="1.0"><defs><filter x="0%" y="0%" width="100%" height="100%" id="0911f51ba0"><feColorMatrix values="0 0 0 0 1 0 0 0 0 1 0 0 0 0 1 0 0 0 1 0" color-interpolation-filters="sRGB"/></filter><clipPath id="a3a6348ece"><path d="M 0 0.140625 L 1024 0.140625 L 1024 575.859375 L 0 575.859375 Z M 0 0.140625 " clip-rule="nonzero"/></clipPath><mask id="f87c2a96ef"><g filter="url(#0911f51ba0)"><rect x="-102.45" width="1229.4" fill="#000000" y="-57.6" height="691.2" fill-opacity="0.65"/></g></mask><clipPath id="c495de5432"><path d="M 0 0.140625 L 1024 0.140625 L 1024 575.859375 L 0 575.859375 Z M 0 0.140625 " clip-rule="nonzero"/></clipPath><clipPath id="dfec098b88"><path d="M 5.535156 -36.808594 L 1015.757812 -36.808594 C 1030.660156 -36.808594 1042.742188 -24.726562 1042.742188 -9.820312 L 1042.742188 561.433594 C 1042.742188 576.339844 1030.660156 588.421875 1015.757812 588.421875 L 5.535156 588.421875 C -9.371094 588.421875 -21.453125 576.339844 -21.453125 561.433594 L -21.453125 -9.820312 C -21.453125 -24.726562 -9.371094 -36.808594 5.535156 -36.808594 Z M 5.535156 -36.808594 " clip-rule="nonzero"/></clipPath><clipPath id="ac175470d8"><rect x="0" width="1024" y="0" height="576"/></clipPath><clipPath id="83213f822c"><path d="M 0 0.140625 L 1024 0.140625 L 1024 182.75 L 0 182.75 Z M 0 0.140625 " clip-rule="nonzero"/></clipPath><clipPath id="51be88f6eb"><path d="M 511.503906 -1044.296875 C 112.460938 -1044.296875 -211.027344 -769.613281 -211.027344 -430.773438 C -211.027344 -91.933594 112.460938 182.75 511.503906 182.75 C 910.546875 182.75 1234.035156 -91.933594 1234.035156 -430.773438 C 1234.035156 -769.613281 910.546875 -1044.296875 511.503906 -1044.296875 Z M 511.503906 -1044.296875 " clip-rule="nonzero"/></clipPath><clipPath id="5cbb985cb4"><path d="M 860 0.140625 L 960 0.140625 L 960 115 L 860 115 Z M 860 0.140625 " clip-rule="nonzero"/></clipPath><clipPath id="2341b03bae"><path d="M 1004.648438 231.898438 L 743.234375 128.53125 L 874.71875 -203.992188 L 1136.136719 -100.625 Z M 1004.648438 231.898438 " clip-rule="nonzero"/></clipPath><clipPath id="1079e5ad2d"><path d="M 1004.648438 231.898438 L 743.234375 128.53125 L 874.71875 -203.992188 L 1136.136719 -100.625 Z M 1004.648438 231.898438 " clip-rule="nonzero"/></clipPath><clipPath id="0c6fa2db46"><path d="M 761 106 L 868 106 L 868 149 L 761 149 Z M 761 106 " clip-rule="nonzero"/></clipPath><clipPath id="b758e2adca"><path d="M 1004.648438 231.898438 L 743.234375 128.53125 L 874.71875 -203.992188 L 1136.136719 -100.625 Z M 1004.648438 231.898438 " clip-rule="nonzero"/></clipPath><clipPath id="5ccdcdae92"><path d="M 1004.648438 231.898438 L 743.234375 128.53125 L 874.71875 -203.992188 L 1136.136719 -100.625 Z M 1004.648438 231.898438 " clip-rule="nonzero"/></clipPath><clipPath id="ed6d4fd6ed"><path d="M 795 54 L 908 54 L 908 115 L 795 115 Z M 795 54 " clip-rule="nonzero"/></clipPath><clipPath id="c1db1d83da"><path d="M 1004.648438 231.898438 L 743.234375 128.53125 L 874.71875 -203.992188 L 1136.136719 -100.625 Z M 1004.648438 231.898438 " clip-rule="nonzero"/></clipPath><clipPath id="70e8782144"><path d="M 1004.648438 231.898438 L 743.234375 128.53125 L 874.71875 -203.992188 L 1136.136719 -100.625 Z M 1004.648438 231.898438 " clip-rule="nonzero"/></clipPath><clipPath id="f3cd956ce4"><path d="M 902 73 L 938 73 L 938 198 L 902 198 Z M 902 73 " clip-rule="nonzero"/></clipPath><clipPath id="bae9f0b334"><path d="M 1004.648438 231.898438 L 743.234375 128.53125 L 874.71875 -203.992188 L 1136.136719 -100.625 Z M 1004.648438 231.898438 " clip-rule="nonzero"/></clipPath><clipPath id="93d55fdc4e"><path d="M 1004.648438 231.898438 L 743.234375 128.53125 L 874.71875 -203.992188 L 1136.136719 -100.625 Z M 1004.648438 231.898438 " clip-rule="nonzero"/></clipPath><clipPath id="bad411dc96"><path d="M 799 3 L 946 3 L 946 45 L 799 45 Z M 799 3 " clip-rule="nonzero"/></clipPath><clipPath id="2d5b9dab43"><path d="M 1004.648438 231.898438 L 743.234375 128.53125 L 874.71875 -203.992188 L 1136.136719 -100.625 Z M 1004.648438 231.898438 " clip-rule="nonzero"/></clipPath><clipPath id="c8f313580e"><path d="M 1004.648438 231.898438 L 743.234375 128.53125 L 874.71875 -203.992188 L 1136.136719 -100.625 Z M 1004.648438 231.898438 " clip-rule="nonzero"/></clipPath><clipPath id="aa0bd4c457"><path d="M 935 29 L 1024 29 L 1024 175 L 935 175 Z M 935 29 " clip-rule="nonzero"/></clipPath><clipPath id="38a79344e1"><path d="M 1004.648438 231.898438 L 743.234375 128.53125 L 874.71875 -203.992188 L 1136.136719 -100.625 Z M 1004.648438 231.898438 " clip-rule="nonzero"/></clipPath><clipPath id="6cd6419521"><path d="M 1004.648438 231.898438 L 743.234375 128.53125 L 874.71875 -203.992188 L 1136.136719 -100.625 Z M 1004.648438 231.898438 " clip-rule="nonzero"/></clipPath><clipPath id="7be74d4b4c"><path d="M 943 0.140625 L 1024 0.140625 L 1024 49 L 943 49 Z M 943 0.140625 " clip-rule="nonzero"/></clipPath><clipPath id="a65a917ff7"><path d="M 1004.648438 231.898438 L 743.234375 128.53125 L 874.71875 -203.992188 L 1136.136719 -100.625 Z M 1004.648438 231.898438 " clip-rule="nonzero"/></clipPath><clipPath id="11300e3b90"><path d="M 1004.648438 231.898438 L 743.234375 128.53125 L 874.71875 -203.992188 L 1136.136719 -100.625 Z M 1004.648438 231.898438 " clip-rule="nonzero"/></clipPath><clipPath id="7339242bba"><path d="M 795 59 L 903 59 L 903 115 L 795 115 Z M 795 59 " clip-rule="nonzero"/></clipPath><clipPath id="7e1b7ac5be"><path d="M 1004.648438 231.898438 L 743.234375 128.53125 L 874.71875 -203.992188 L 1136.136719 -100.625 Z M 1004.648438 231.898438 " clip-rule="nonzero"/></clipPath><clipPath id="c41283c9a8"><path d="M 1004.648438 231.898438 L 743.234375 128.53125 L 874.71875 -203.992188 L 1136.136719 -100.625 Z M 1004.648438 231.898438 " clip-rule="nonzero"/></clipPath><clipPath id="a0106c9311"><path d="M 762 107 L 864 107 L 864 144 L 762 144 Z M 762 107 " clip-rule="nonzero"/></clipPath><clipPath id="8670e4c990"><path d="M 1004.648438 231.898438 L 743.234375 128.53125 L 874.71875 -203.992188 L 1136.136719 -100.625 Z M 1004.648438 231.898438 " clip-rule="nonzero"/></clipPath><clipPath id="aa6d97e6f4"><path d="M 1004.648438 231.898438 L 743.234375 128.53125 L 874.71875 -203.992188 L 1136.136719 -100.625 Z M 1004.648438 231.898438 " clip-rule="nonzero"/></clipPath><clipPath id="4a9a734cad"><path d="M 801 11 L 939 11 L 939 45 L 801 45 Z M 801 11 " clip-rule="nonzero"/></clipPath><clipPath id="2e53c932cd"><path d="M 1004.648438 231.898438 L 743.234375 128.53125 L 874.71875 -203.992188 L 1136.136719 -100.625 Z M 1004.648438 231.898438 " clip-rule="nonzero"/></clipPath><clipPath id="fec605bf86"><path d="M 1004.648438 231.898438 L 743.234375 128.53125 L 874.71875 -203.992188 L 1136.136719 -100.625 Z M 1004.648438 231.898438 " clip-rule="nonzero"/></clipPath><clipPath id="e7328aef43"><path d="M 903 77 L 933 77 L 933 197 L 903 197 Z M 903 77 " clip-rule="nonzero"/></clipPath><clipPath id="bfe75bd574"><path d="M 1004.648438 231.898438 L 743.234375 128.53125 L 874.71875 -203.992188 L 1136.136719 -100.625 Z M 1004.648438 231.898438 " clip-rule="nonzero"/></clipPath><clipPath id="2330cc4aec"><path d="M 1004.648438 231.898438 L 743.234375 128.53125 L 874.71875 -203.992188 L 1136.136719 -100.625 Z M 1004.648438 231.898438 " clip-rule="nonzero"/></clipPath><clipPath id="d5f4da90c9"><path d="M 947 33 L 1019 33 L 1019 168 L 947 168 Z M 947 33 " clip-rule="nonzero"/></clipPath><clipPath id="85080901a2"><path d="M 1004.648438 231.898438 L 743.234375 128.53125 L 874.71875 -203.992188 L 1136.136719 -100.625 Z M 1004.648438 231.898438 " clip-rule="nonzero"/></clipPath><clipPath id="07badf8126"><path d="M 1004.648438 231.898438 L 743.234375 128.53125 L 874.71875 -203.992188 L 1136.136719 -100.625 Z M 1004.648438 231.898438 " clip-rule="nonzero"/></clipPath><clipPath id="646c438ec8"><path d="M 951 4 L 1024 4 L 1024 38 L 951 38 Z M 951 4 " clip-rule="nonzero"/></clipPath><clipPath id="493a33ecd4"><path d="M 1004.648438 231.898438 L 743.234375 128.53125 L 874.71875 -203.992188 L 1136.136719 -100.625 Z M 1004.648438 231.898438 " clip-rule="nonzero"/></clipPath><clipPath id="a2e0d6a39b"><path d="M 1004.648438 231.898438 L 743.234375 128.53125 L 874.71875 -203.992188 L 1136.136719 -100.625 Z M 1004.648438 231.898438 " clip-rule="nonzero"/></clipPath></defs><g clip-path="url(#a3a6348ece)"><path fill="#ffffff" d="M 0 0.140625 L 1024 0.140625 L 1024 575.859375 L 0 575.859375 Z M 0 0.140625 " fill-opacity="1" fill-rule="nonzero"/><path fill="#76a458" d="M 0 0.140625 L 1024 0.140625 L 1024 575.859375 L 0 575.859375 Z M 0 0.140625 " fill-opacity="1" fill-rule="nonzero"/><g mask="url(#f87c2a96ef)"><g transform="matrix(1, 0, 0, 1, 0, 0.000000000000055289)"><g clip-path="url(#ac175470d8)"><g clip-path="url(#c495de5432)"><g clip-path="url(#dfec098b88)"><rect x="-225.39" width="1475.28" fill="#76a458" height="829.44" y="-126.72" fill-opacity="1"/></g></g></g></g></g></g><g clip-path="url(#83213f822c)"><g clip-path="url(#51be88f6eb)"><path fill="#2f5b4c" d="M -211.027344 -1044.296875 L 1231.710938 -1044.296875 L 1231.710938 182.75 L -211.027344 182.75 Z M -211.027344 -1044.296875 " fill-opacity="1" fill-rule="nonzero"/></g></g><g clip-path="url(#5cbb985cb4)"><g clip-path="url(#2341b03bae)"><g clip-path="url(#1079e5ad2d)"><path fill="#76a458" d="M 959.363281 -51.472656 C 958.378906 -47.453125 956.644531 -43.726562 955.046875 -40.117188 C 952.988281 -35.570312 951.09375 -31.214844 950.484375 -26.613281 C 949.625 -20.289062 951.386719 -13.800781 953.203125 -7.027344 C 955.144531 0.316406 957.25 7.894531 955.878906 15.742188 C 953.292969 30.375 940.066406 39.765625 929.359375 44.960938 C 928.601562 45.351562 927.765625 45.714844 927.003906 46.105469 C 920.804688 49.101562 914.496094 52.144531 911.621094 57.667969 C 910.140625 60.539062 909.703125 63.828125 909.148438 67.414062 C 908.875 69.210938 908.671875 71.03125 908.214844 72.84375 C 905.308594 85.878906 895.238281 96.6875 882.421875 100.441406 C 881.542969 100.699219 880.664062 100.957031 879.8125 101.140625 C 877.695312 101.6875 875.785156 102.140625 874.097656 103.121094 C 870.34375 105.179688 868 109.359375 865.570312 114.191406 L 860.585938 111.703125 C 862.761719 107.289062 865.816406 101.316406 871.363281 98.230469 C 873.671875 96.984375 876.074219 96.375 878.402344 95.738281 C 879.179688 95.527344 880.027344 95.34375 880.835938 95.058594 C 891.578125 91.953125 900.351562 82.449219 902.757812 71.550781 C 903.125 69.964844 903.34375 68.320312 903.589844 66.601562 C 904.15625 62.761719 904.679688 58.816406 906.667969 55.101562 C 910.371094 47.917969 917.929688 44.332031 924.582031 41.082031 C 925.339844 40.6875 926.175781 40.328125 926.9375 39.9375 C 936.492188 35.238281 948.304688 27.019531 950.40625 14.703125 C 951.5625 8.066406 949.789062 1.398438 947.90625 -5.660156 C 945.996094 -12.644531 944.101562 -19.878906 945.074219 -27.367188 C 945.796875 -32.703125 947.929688 -37.65625 950.046875 -42.355469 C 951.617188 -45.886719 953.125 -49.269531 954.007812 -52.8125 Z M 959.363281 -51.472656 " fill-opacity="1" fill-rule="nonzero"/></g></g></g><g clip-path="url(#0c6fa2db46)"><g clip-path="url(#b758e2adca)"><g clip-path="url(#5ccdcdae92)"><path fill="#76a458" d="M 844.003906 141.386719 C 841.269531 141.519531 838.460938 141.1875 835.757812 141.242188 C 830.425781 141.382812 825.292969 142.984375 820.191406 144.515625 C 814.492188 146.242188 808.613281 147.980469 802.640625 148.214844 C 796.664062 148.445312 790.417969 147.1875 785.679688 143.410156 C 784.289062 142.339844 783.085938 141.003906 781.886719 139.664062 C 775.421875 132.609375 769.445312 124.96875 764.128906 116.984375 C 762.054688 113.914062 760.082031 109.933594 761.890625 106.671875 C 773.285156 113.945312 786.148438 121.453125 799.339844 118.710938 C 801.503906 118.269531 803.710938 117.5 805.9375 117.339844 C 812.972656 116.835938 819.402344 122.230469 826.523438 121.933594 C 832.675781 121.6875 837.785156 117.304688 843.148438 114.234375 C 851.671875 109.304688 869.203125 103.691406 866.992188 119.339844 C 865.410156 130.996094 855.980469 140.847656 844.003906 141.386719 Z M 844.003906 141.386719 " fill-opacity="1" fill-rule="nonzero"/></g></g></g><g clip-path="url(#ed6d4fd6ed)"><g clip-path="url(#c1db1d83da)"><g clip-path="url(#70e8782144)"><path fill="#76a458" d="M 907.34375 67.828125 C 902.433594 76.523438 890.867188 78.4375 880.902344 78.042969 C 870.9375 77.648438 860.160156 76.242188 851.699219 81.460938 C 848.167969 83.609375 845.371094 86.742188 842.199219 89.292969 C 836.273438 94.21875 828.9375 97.457031 821.339844 98.519531 C 819.128906 98.855469 816.753906 98.957031 814.878906 100.203125 C 813.34375 101.238281 812.363281 102.839844 811.234375 104.382812 C 807.328125 109.671875 801.441406 113.398438 795.023438 114.753906 C 805.007812 105.46875 799.65625 85.101562 811.113281 77.78125 C 815.628906 74.894531 821.363281 74.828125 826.089844 72.285156 C 833.230469 68.449219 836.597656 59.488281 843.949219 55.992188 C 849.808594 53.207031 856.683594 54.628906 863.023438 56.097656 C 870.140625 57.785156 877.289062 59.402344 884.328125 61.0625 C 889.488281 62.234375 894.839844 63.574219 899.15625 66.664062 C 901.042969 68.015625 902.707031 69.710938 904.800781 70.539062 C 907.046875 71.425781 906.488281 69.996094 907.34375 67.828125 Z M 907.34375 67.828125 " fill-opacity="1" fill-rule="nonzero"/></g></g></g><g clip-path="url(#f3cd956ce4)"><g clip-path="url(#bae9f0b334)"><g clip-path="url(#93d55fdc4e)"><path fill="#76a458" d="M 904.085938 82.195312 C 904.28125 90.230469 910.390625 97.316406 910.226562 105.382812 C 910.027344 111.359375 906.476562 116.613281 904.4375 122.210938 C 901.703125 129.777344 901.871094 138.320312 904.949219 145.851562 C 907.527344 152.234375 912.242188 157.820312 913.449219 164.609375 C 914.195312 168.625 913.644531 172.644531 913.929688 176.738281 C 914.214844 180.828125 915.484375 185.050781 918.796875 187.398438 C 920.144531 188.363281 921.820312 188.941406 923.078125 190.128906 C 924.382812 191.425781 924.898438 193.183594 925.832031 194.765625 C 926.761719 196.34375 928.472656 197.710938 930.171875 197.347656 C 927.285156 188.246094 930.589844 178.136719 934.558594 169.410156 C 935.773438 166.777344 937.285156 164.261719 937.574219 161.347656 C 937.890625 158.792969 937.121094 156.152344 936.363281 153.691406 C 933.808594 145.933594 929.925781 138.253906 930.21875 130.070312 C 930.644531 120.03125 937.234375 109.488281 932.523438 100.617188 C 930.929688 97.652344 928.199219 95.363281 925.59375 93.207031 C 917.742188 86.816406 909.917969 80.347656 902.066406 73.957031 " fill-opacity="1" fill-rule="nonzero"/></g></g></g><g clip-path="url(#bad411dc96)"><g clip-path="url(#2d5b9dab43)"><g clip-path="url(#c8f313580e)"><path fill="#76a458" d="M 936.894531 34.445312 C 926.59375 43.867188 910.515625 46.246094 897.960938 40.15625 C 892.003906 37.28125 886.578125 32.628906 879.960938 32.519531 C 873.011719 32.367188 867.148438 37.140625 860.960938 40.316406 C 854.117188 43.839844 845.683594 45.261719 838.679688 41.972656 C 835.628906 40.507812 832.898438 38.214844 829.582031 37.855469 C 825.832031 37.496094 822.449219 39.707031 819.050781 41.304688 C 812.9375 44.078125 805.933594 44.941406 799.328125 43.710938 C 806.371094 41.652344 808.9375 33.410156 810.402344 26.207031 C 811.867188 19 813.105469 10.839844 819.046875 6.53125 C 824.066406 2.804688 830.984375 3.03125 837.097656 4.410156 C 843.183594 5.867188 849.136719 8.308594 855.367188 8.523438 C 861.417969 8.753906 867.25 6.90625 873.238281 5.988281 C 886.164062 3.917969 899.8125 6.375 911.308594 12.738281 C 922.507812 18.980469 932.449219 29.054688 945.195312 29.855469 " fill-opacity="1" fill-rule="nonzero"/></g></g></g><g clip-path="url(#aa0bd4c457)"><g clip-path="url(#38a79344e1)"><g clip-path="url(#6cd6419521)"><path fill="#76a458" d="M 946.40625 34.226562 C 945.066406 42.433594 943.753906 50.566406 942.484375 58.800781 C 941.539062 64.914062 941.03125 72.324219 945.988281 76.1875 C 948.898438 78.460938 953.082031 78.820312 955.957031 81.167969 C 957.859375 82.699219 959.066406 84.902344 960.148438 86.976562 C 962.40625 91.328125 964.753906 95.890625 964.820312 100.757812 C 964.84375 107.257812 960.777344 113.605469 962.726562 119.828125 C 965.390625 128.839844 977.8125 130.894531 984.144531 138.070312 C 989.113281 143.667969 989.785156 151.804688 994.378906 157.6875 C 999.621094 164.34375 1009.042969 167.203125 1013.386719 174.371094 C 1014.851562 167.167969 1018.167969 160.089844 1022.253906 153.917969 C 1024.96875 149.890625 1028.210938 146.066406 1029.6875 141.460938 C 1031.664062 135.148438 1029.796875 127.835938 1025.042969 123.015625 C 1021.640625 119.59375 1016.867188 117.449219 1014.132812 113.425781 C 1010.523438 108.105469 1011.5 101.054688 1013.535156 95.023438 C 1015.574219 88.996094 1018.492188 83.144531 1018.332031 76.769531 C 1018.140625 69.597656 1013.527344 62.671875 1006.824219 59.5 C 998.457031 55.5 987.664062 57.203125 980.679688 51.238281 C 976.738281 47.863281 974.910156 42.644531 971.667969 38.59375 C 967.945312 34.007812 962.332031 30.921875 956.457031 30.246094 C 949.421875 29.449219 941.945312 31.945312 935.257812 29.386719 " fill-opacity="1" fill-rule="nonzero"/></g></g></g><g clip-path="url(#7be74d4b4c)"><g clip-path="url(#a65a917ff7)"><g clip-path="url(#11300e3b90)"><path fill="#76a458" d="M 943.707031 31.863281 C 953.679688 37.277344 964.050781 42.761719 975.523438 42.625 C 984.214844 42.519531 993.015625 39.078125 1001.667969 39.730469 C 1009.226562 40.296875 1016.082031 43.960938 1023.230469 46.441406 C 1030.382812 48.921875 1038.585938 50.265625 1045.53125 46.261719 C 1052.238281 42.429688 1056.316406 34.523438 1062.570312 29.644531 C 1069.730469 24 1078.78125 22.996094 1087.410156 22.167969 C 1079.054688 17.046875 1075.8125 5.558594 1068.214844 -0.820312 C 1060.105469 -7.65625 1049.253906 -9.527344 1038.695312 -9.722656 C 1031.644531 -9.832031 1024.402344 -9.234375 1017.960938 -5.640625 C 1015.175781 -4.058594 1012.511719 -1.914062 1009.511719 -1.109375 C 1001.289062 1.089844 994.339844 -6.933594 986.0625 -7.441406 C 979.3125 -7.859375 972.863281 -3.144531 967.445312 1.804688 C 957.175781 11.152344 950.800781 19.617188 943.707031 31.863281 Z M 943.707031 31.863281 " fill-opacity="1" fill-rule="nonzero"/></g></g></g><g clip-path="url(#7339242bba)"><g clip-path="url(#7e1b7ac5be)"><g clip-path="url(#c41283c9a8)"><path fill="#2f5b4c" d="M 806.097656 85.660156 C 806.304688 86 806.800781 86.28125 807.144531 86.074219 C 809.230469 84.734375 811.707031 84.15625 814.140625 84.34375 C 812.609375 86.246094 811.351562 88.339844 810.34375 90.453125 C 809.511719 92.113281 808.800781 93.90625 808.09375 95.703125 C 805.464844 95.789062 803.109375 97.367188 801.910156 99.746094 C 801.761719 100.121094 801.988281 100.640625 802.363281 100.789062 C 802.8125 100.96875 803.183594 100.683594 803.40625 100.335938 C 803.40625 100.335938 803.433594 100.261719 803.433594 100.261719 C 803.464844 100.1875 803.496094 100.113281 803.496094 100.113281 C 803.554688 99.964844 803.65625 99.917969 803.71875 99.769531 C 803.878906 99.574219 804.074219 99.304688 804.238281 99.109375 C 804.238281 99.109375 804.265625 99.035156 804.265625 99.035156 C 804.296875 98.960938 804.371094 98.988281 804.402344 98.914062 C 804.535156 98.792969 804.5625 98.71875 804.699219 98.597656 C 804.832031 98.480469 804.9375 98.433594 805.042969 98.390625 C 805.070312 98.3125 805.144531 98.34375 805.175781 98.269531 C 805.175781 98.269531 805.28125 98.222656 805.308594 98.148438 C 805.308594 98.148438 805.414062 98.105469 805.414062 98.105469 C 805.519531 98.058594 805.519531 98.058594 805.621094 98.011719 C 805.726562 97.96875 805.832031 97.921875 805.964844 97.804688 C 806.070312 97.757812 806.171875 97.710938 806.382812 97.621094 C 806.488281 97.578125 806.488281 97.578125 806.589844 97.53125 C 806.875 97.46875 807.082031 97.378906 807.335938 97.394531 C 804.910156 103.527344 802.324219 109.855469 796.269531 112.914062 C 795.300781 113.394531 796.039062 114.8125 796.980469 114.402344 C 803.34375 111.210938 806.125 104.613281 808.730469 98.03125 C 809.46875 99.878906 809.609375 101.925781 808.945312 103.824219 C 808.636719 104.828125 810.164062 105.34375 810.472656 104.34375 C 811.386719 101.589844 811.074219 98.441406 809.527344 96.011719 C 811.171875 92.078125 812.859375 88.246094 815.414062 85.277344 C 817.097656 87.585938 817.765625 90.707031 817.078125 93.546875 C 817.003906 93.949219 817.15625 94.441406 817.527344 94.589844 C 817.902344 94.738281 818.425781 94.511719 818.574219 94.136719 C 819.425781 90.667969 818.632812 86.984375 816.546875 84.167969 C 818.675781 82.070312 821.429688 80.5625 825.058594 79.921875 C 826.371094 79.664062 827.699219 79.582031 829.03125 79.503906 C 828.878906 82.730469 827.410156 85.785156 825.046875 88.046875 C 824.316406 88.796875 825.324219 89.972656 826.097656 89.328125 C 828.730469 86.824219 830.375 83.320312 830.597656 79.691406 C 830.628906 79.617188 830.582031 79.511719 830.613281 79.4375 C 832.375 79.355469 834.210938 79.304688 836.035156 79.070312 C 838.648438 78.808594 841.050781 78.199219 843.226562 77.070312 C 842.472656 79.628906 841.4375 82.246094 839.308594 83.914062 C 838.535156 84.558594 839.511719 85.808594 840.359375 85.195312 C 843.234375 82.957031 844.324219 79.324219 845.222656 75.957031 C 845.492188 75.71875 845.804688 75.582031 846.070312 75.34375 C 847.695312 74.082031 849.183594 72.507812 850.761719 71.140625 C 852.101562 69.941406 853.632812 68.90625 855.214844 67.972656 C 854.507812 71.066406 853.429688 74.015625 852.128906 76.871094 C 851.980469 77.246094 852.207031 77.769531 852.578125 77.917969 C 853.027344 78.09375 853.402344 77.808594 853.625 77.464844 C 855.148438 74.261719 856.300781 70.910156 857.003906 67.382812 C 857.035156 67.308594 857.0625 67.234375 856.988281 67.203125 C 860.957031 65.484375 865.316406 64.960938 869.578125 66.214844 C 870.355469 66.433594 871.132812 66.65625 871.878906 66.949219 C 870.980469 69.882812 869.378906 72.621094 867.191406 74.871094 C 866.894531 75.1875 866.792969 75.664062 867.078125 76.035156 C 867.316406 76.304688 867.871094 76.4375 868.242188 76.152344 C 870.59375 73.707031 872.359375 70.773438 873.40625 67.46875 C 874.632812 67.867188 875.828125 68.339844 877.160156 68.691406 C 879.792969 69.472656 882.484375 70.105469 885.128906 70.632812 C 885.203125 70.664062 885.277344 70.691406 885.382812 70.648438 C 884.269531 71.9375 883.078125 73.195312 881.363281 73.8125 C 880.945312 73.996094 880.8125 74.546875 880.949219 74.863281 C 881.128906 75.277344 881.609375 75.382812 881.996094 75.277344 C 884.128906 74.476562 885.675781 72.75 887.070312 70.96875 C 891.988281 71.875 896.921875 72.527344 901.929688 73.210938 C 902.914062 73.339844 903.101562 71.773438 902.042969 71.613281 C 897.183594 70.988281 892.253906 70.335938 887.4375 69.382812 C 886.292969 67.027344 884.597656 64.972656 882.679688 63.261719 C 882.363281 62.964844 881.796875 63.085938 881.574219 63.433594 C 881.324219 63.851562 881.429688 64.238281 881.742188 64.535156 C 883.226562 65.816406 884.472656 67.257812 885.375 68.914062 C 881.144531 68.019531 877.078125 66.929688 872.949219 65.558594 C 871.820312 63.382812 870.246094 61.460938 868.445312 59.882812 C 868.132812 59.585938 867.535156 59.785156 867.339844 60.054688 C 867.089844 60.472656 867.195312 60.859375 867.511719 61.15625 C 868.726562 62.242188 869.730469 63.417969 870.648438 64.820312 C 868.941406 64.320312 867.28125 63.921875 865.535156 63.75 C 863.425781 63.609375 861.324219 63.902344 859.351562 64.507812 C 858.085938 64.871094 856.863281 65.335938 855.789062 65.863281 C 852.152344 63.90625 848.21875 62.699219 844.0625 62.265625 C 843.046875 62.210938 842.933594 63.808594 843.949219 63.863281 C 847.445312 64.210938 850.886719 65.136719 854.058594 66.738281 C 852.03125 67.925781 850.199219 69.277344 848.429688 70.914062 C 847.089844 72.113281 845.824219 73.34375 844.367188 74.410156 C 844.289062 74.378906 844.289062 74.378906 844.320312 74.304688 C 839.992188 71.902344 835.238281 70.367188 830.261719 70.042969 C 829.246094 69.988281 829.132812 71.585938 830.148438 71.640625 C 834.617188 71.9375 838.953125 73.21875 842.933594 75.398438 C 841.488281 76.210938 839.878906 76.785156 838.207031 77.078125 C 835.578125 77.59375 832.875 77.652344 830.144531 77.78125 C 827.925781 76.386719 825.488281 75.335938 822.871094 74.734375 C 822.46875 74.660156 821.976562 74.8125 821.828125 75.183594 C 821.679688 75.558594 821.90625 76.082031 822.28125 76.230469 C 823.941406 76.625 825.539062 77.171875 827.128906 77.972656 C 823.542969 78.285156 820.050781 79.238281 817.101562 81.449219 C 816.460938 81.972656 815.824219 82.5 815.257812 83.054688 C 812.179688 82.527344 808.910156 83.136719 806.273438 84.777344 C 806.09375 84.792969 805.914062 85.242188 806.097656 85.660156 Z M 806.097656 85.660156 " fill-opacity="1" fill-rule="nonzero"/></g></g></g><g clip-path="url(#a0106c9311)"><g clip-path="url(#8670e4c990)"><g clip-path="url(#aa6d97e6f4)"><path fill="#2f5b4c" d="M 762.214844 109.132812 C 764.09375 112.472656 766.453125 115.480469 769.238281 118.054688 C 772.296875 120.820312 775.785156 122.71875 779.542969 124.375 C 782.625 125.769531 785.574219 127.28125 788.597656 128.820312 C 786.121094 130.265625 783.09375 130.710938 780.324219 130.050781 C 779.921875 129.976562 779.429688 130.128906 779.28125 130.5 C 779.132812 130.875 779.359375 131.398438 779.734375 131.546875 C 783.128906 132.367188 786.800781 131.832031 789.78125 129.980469 C 789.914062 129.863281 790.046875 129.742188 790.136719 129.515625 C 790.285156 129.578125 790.363281 129.605469 790.511719 129.664062 C 793.339844 131.042969 796.199219 132.347656 799.234375 133.199219 C 796.929688 136.183594 793.351562 137.792969 789.832031 138.824219 C 789.441406 138.929688 789.117188 139.320312 789.191406 139.78125 C 789.296875 140.171875 789.734375 140.601562 790.152344 140.421875 C 794.269531 139.195312 798.503906 137.238281 800.96875 133.628906 C 801.042969 133.65625 801.117188 133.6875 801.191406 133.714844 C 804.71875 134.417969 808.304688 134.105469 811.734375 132.867188 C 813.136719 132.382812 814.492188 131.796875 815.777344 131.179688 C 813.96875 135.308594 811.804688 139.46875 807.738281 141.667969 C 806.84375 142.175781 807.476562 143.640625 808.445312 143.15625 C 813.378906 140.523438 815.777344 135.332031 817.910156 130.378906 C 817.9375 130.304688 817.9375 130.304688 817.96875 130.230469 C 819.117188 129.730469 820.339844 129.261719 821.578125 128.976562 C 825.636719 127.898438 829.34375 129.019531 833.246094 129.871094 C 833.472656 129.957031 833.652344 129.941406 833.875 130.03125 C 832.1875 133.429688 829.507812 136.261719 826.246094 138.171875 C 825.351562 138.683594 826.058594 140.175781 826.953125 139.664062 C 830.664062 137.496094 833.667969 134.273438 835.566406 130.351562 C 838.449219 130.714844 841.285156 130.539062 844.105469 129.753906 C 845.480469 129.34375 846.777344 128.90625 847.984375 128.257812 C 847.027344 131.773438 845.144531 135.003906 842.507812 137.511719 C 841.78125 138.261719 842.785156 139.4375 843.558594 138.792969 C 846.789062 135.65625 848.96875 131.675781 849.890625 127.367188 C 852.8125 125.667969 855.402344 123.492188 857.679688 121.019531 C 857.835938 122.378906 857.628906 123.769531 857.484375 125.007812 C 857.195312 127.054688 856.652344 129.089844 855.910156 130.960938 C 855.527344 131.933594 857.050781 132.449219 857.4375 131.476562 C 858.265625 129.382812 858.824219 127.09375 859.097656 124.867188 C 859.375 123.074219 859.503906 121.222656 859.0625 119.492188 C 860.667969 117.617188 862.109375 115.503906 863.371094 113.410156 C 863.90625 112.496094 862.601562 111.636719 862.097656 112.472656 C 860.867188 114.496094 859.484375 116.457031 857.984375 118.285156 C 857.890625 118.078125 857.773438 117.941406 857.519531 117.929688 C 854.363281 116.941406 851.222656 116.132812 847.890625 115.589844 C 847.484375 115.519531 847.054688 115.953125 846.980469 116.355469 C 846.953125 116.863281 847.269531 117.164062 847.746094 117.265625 C 850.824219 117.789062 853.921875 118.496094 856.898438 119.5 C 854.589844 122.046875 852.046875 124.328125 849.050781 126 C 847.378906 123.003906 844.085938 121.269531 841.003906 119.875 C 840.632812 119.726562 840.109375 119.953125 839.960938 120.328125 C 839.785156 120.777344 840.070312 121.148438 840.414062 121.371094 C 843.09375 122.691406 845.996094 124.097656 847.53125 126.78125 C 846.902344 127.050781 846.246094 127.398438 845.546875 127.640625 C 842.398438 128.816406 839.011719 129.292969 835.695312 128.933594 C 835.855469 128.738281 835.871094 128.484375 835.734375 128.171875 C 834.980469 126.144531 833.597656 124.386719 831.996094 122.972656 C 831.679688 122.675781 831.113281 122.796875 830.890625 123.140625 C 830.636719 123.5625 830.746094 123.949219 831.058594 124.246094 C 831.132812 124.277344 831.253906 124.410156 831.300781 124.515625 C 831.300781 124.515625 831.300781 124.515625 831.375 124.542969 C 831.449219 124.574219 831.417969 124.648438 831.496094 124.679688 C 831.6875 124.84375 831.882812 125.003906 831.972656 125.214844 C 832.257812 125.585938 832.621094 125.988281 832.90625 126.359375 C 832.949219 126.464844 833.023438 126.496094 833.070312 126.597656 C 833.144531 126.628906 833.117188 126.703125 833.191406 126.734375 C 833.28125 126.941406 833.445312 127.179688 833.535156 127.390625 C 833.71875 127.804688 833.929688 128.148438 834.109375 128.566406 C 830.65625 127.894531 827.230469 126.710938 823.648438 127.023438 C 821.570312 127.242188 819.527344 127.816406 817.648438 128.632812 C 815.75 124.679688 812.480469 121.570312 808.53125 119.75 C 807.589844 119.292969 807.070312 120.816406 808.015625 121.277344 C 811.515625 122.921875 814.441406 125.804688 816.1875 129.265625 C 812.429688 130.894531 808.65625 132.773438 804.386719 132.640625 C 803.191406 132.601562 801.949219 132.457031 800.84375 132.195312 C 801.382812 128.859375 801.429688 125.246094 799.550781 122.339844 C 799.339844 121.996094 798.917969 121.746094 798.503906 121.925781 C 798.160156 122.136719 797.878906 122.628906 798.089844 122.972656 C 799.726562 125.609375 799.679688 128.792969 799.214844 131.722656 C 796.253906 130.898438 793.320312 129.566406 790.519531 128.113281 C 790.550781 128.035156 790.550781 128.035156 790.503906 127.933594 C 789.730469 124.859375 788.078125 122.042969 785.722656 119.898438 C 785.40625 119.601562 784.8125 119.800781 784.617188 120.070312 C 784.367188 120.488281 784.472656 120.875 784.785156 121.171875 C 786.511719 122.71875 787.847656 124.804688 788.617188 127.015625 C 786.957031 126.183594 785.402344 125.308594 783.8125 124.507812 C 779.667969 122.523438 775.480469 120.867188 771.765625 118.011719 C 768.394531 115.382812 765.644531 112.046875 763.554688 108.367188 C 763.117188 107.503906 761.703125 108.238281 762.214844 109.132812 Z M 762.214844 109.132812 " fill-opacity="1" fill-rule="nonzero"/></g></g></g><g clip-path="url(#4a9a734cad)"><g clip-path="url(#2e53c932cd)"><g clip-path="url(#fec605bf86)"><path fill="#2f5b4c" d="M 802.902344 44.519531 C 809.882812 42.609375 814.582031 36.855469 819.566406 31.90625 C 819.261719 34.207031 818.375 36.453125 817.515625 38.621094 C 817.132812 39.59375 818.65625 40.109375 819.042969 39.136719 C 820.164062 36.296875 821.320312 33.378906 821.234375 30.316406 C 823.703125 28.007812 826.441406 25.890625 829.664062 24.742188 C 830.574219 24.410156 831.5 24.257812 832.425781 24.101562 C 832.222656 25.492188 831.945312 26.851562 831.589844 28.183594 C 831.121094 29.8125 830.46875 31.460938 829.324219 32.824219 C 828.667969 33.601562 829.941406 34.539062 830.597656 33.757812 C 831.847656 32.351562 832.480469 30.527344 833.011719 28.746094 C 833.453125 27.191406 833.820312 25.605469 833.933594 24.007812 C 837.28125 23.859375 840.671875 24.683594 844.023438 25.402344 C 846.414062 25.914062 848.820312 26.175781 851.285156 26.285156 C 850.574219 28.078125 849.714844 29.816406 848.585938 31.359375 C 847.589844 32.78125 846.269531 34.160156 844.445312 34.390625 C 843.445312 34.515625 843.691406 36.082031 844.765625 35.988281 C 846.839844 35.773438 848.480469 34.257812 849.636719 32.636719 C 851.09375 30.707031 852.207031 28.550781 852.988281 26.351562 C 854.976562 26.359375 856.976562 26.113281 859.035156 25.714844 C 861.484375 25.210938 863.839844 24.5 866.0625 23.476562 C 867.730469 22.753906 869.28125 21.894531 870.953125 21.171875 C 870.167969 22.9375 869.488281 24.660156 868.628906 26.394531 C 867.648438 28.429688 866.566406 30.511719 865.050781 32.160156 C 864.320312 32.910156 865.402344 34.113281 866.101562 33.441406 C 867.753906 31.671875 868.910156 29.621094 869.945312 27.433594 C 871.042969 25.101562 872.0625 22.734375 873.011719 20.34375 C 873.011719 20.34375 873.039062 20.269531 873.039062 20.269531 C 873.25 20.175781 873.457031 20.085938 873.667969 19.996094 C 878.425781 18.246094 883.980469 18.191406 888.871094 19.609375 C 887.585938 23.078125 886.0625 26.714844 882.527344 28.429688 C 881.589844 28.835938 882.296875 30.328125 883.234375 29.921875 C 887.15625 28.097656 888.933594 24.042969 890.367188 20.199219 C 892.6875 21.117188 894.648438 22.496094 896.714844 23.832031 C 899.050781 25.363281 901.519531 26.773438 903.945312 28.078125 C 902.582031 30.652344 900.183594 32.558594 897.394531 33.269531 C 896.4375 33.5 896.683594 35.066406 897.714844 34.867188 C 901.070312 34.035156 903.839844 31.839844 905.457031 28.847656 C 907.988281 30.109375 910.546875 31.292969 913.105469 32.476562 C 914.871094 33.261719 916.605469 34.121094 918.355469 34.726562 C 916.125 36.871094 913.335938 38.453125 910.308594 39.328125 C 909.921875 39.4375 909.59375 39.824219 909.671875 40.289062 C 909.777344 40.675781 910.167969 41.003906 910.628906 40.925781 C 914.226562 39.925781 917.488281 38.015625 920.105469 35.332031 C 920.585938 35.433594 921.035156 35.613281 921.511719 35.714844 C 924.234375 36.273438 926.863281 36.1875 929.546875 35.519531 C 932.234375 34.851562 934.917969 33.75 937.726562 33.648438 C 938.769531 33.628906 938.882812 32.03125 937.839844 32.050781 C 932.835938 32.234375 928.246094 35.089844 923.164062 34.378906 C 922.433594 34.261719 921.625 34.117188 920.921875 33.925781 C 920.296875 30.042969 918.144531 26.511719 915.015625 24.148438 C 914.203125 23.570312 913.269531 24.84375 914.078125 25.421875 C 916.667969 27.398438 918.503906 30.199219 919.171875 33.320312 C 917.945312 32.921875 916.777344 32.375 915.582031 31.898438 C 912.949219 30.683594 910.238281 29.441406 907.605469 28.226562 C 907.113281 27.945312 906.589844 27.738281 906.09375 27.457031 C 906.539062 23.046875 905.101562 18.585938 902.148438 15.34375 C 901.429688 14.539062 900.222656 15.621094 900.867188 16.394531 C 903.417969 19.132812 904.6875 22.921875 904.507812 26.65625 C 902.847656 25.824219 901.289062 24.949219 899.6875 23.972656 C 897.398438 22.546875 895.222656 20.824219 892.769531 19.59375 C 892.125 19.25 891.453125 18.984375 890.777344 18.71875 C 890.808594 18.644531 890.761719 18.539062 890.6875 18.511719 C 889.511719 15.796875 887.757812 13.457031 885.597656 11.480469 C 885.28125 11.183594 884.6875 11.378906 884.492188 11.648438 C 884.242188 12.066406 884.347656 12.457031 884.660156 12.753906 C 886.308594 14.269531 887.691406 16.027344 888.699219 18.070312 C 885.035156 17.054688 881.019531 16.933594 877.316406 17.546875 C 875.390625 17.824219 873.570312 18.488281 871.796875 19.257812 C 871.75 19.152344 871.75 19.152344 871.707031 19.046875 C 868.433594 15.507812 864.226562 12.804688 859.5625 11.476562 C 858.558594 11.167969 858.042969 12.695312 859.046875 13.003906 C 863.382812 14.285156 867.199219 16.660156 870.304688 19.964844 C 867.769531 21.125 865.25 22.464844 862.582031 23.3125 C 859.597656 24.292969 856.433594 24.859375 853.191406 24.960938 C 853.148438 24.855469 853.207031 24.707031 853.085938 24.574219 C 850.679688 20.160156 847.316406 16.410156 843.226562 13.410156 C 842.417969 12.832031 841.484375 14.105469 842.292969 14.683594 C 846.039062 17.460938 849.15625 20.945312 851.382812 24.9375 C 850.011719 24.914062 848.589844 24.785156 847.199219 24.582031 C 842.703125 23.929688 838.199219 22.40625 833.628906 22.589844 C 833.554688 22.558594 833.554688 22.558594 833.480469 22.53125 C 833.480469 22.53125 833.433594 22.425781 833.433594 22.425781 C 832.082031 20.59375 830.269531 19.273438 828.234375 18.292969 C 826.230469 17.242188 823.925781 16.070312 821.671875 16.304688 C 820.59375 16.398438 820.914062 17.996094 821.992188 17.898438 C 823.066406 17.804688 824.113281 18.21875 825.085938 18.605469 C 825.984375 18.960938 826.851562 19.390625 827.71875 19.820312 C 829.230469 20.589844 830.578125 21.554688 831.734375 22.792969 C 828.210938 23.386719 825.007812 25.148438 822.238281 27.339844 C 821.460938 27.984375 820.6875 28.628906 819.988281 29.304688 C 819.914062 29.277344 819.914062 29.277344 819.839844 29.246094 C 817 28.554688 814.027344 28.851562 811.359375 30.132812 C 810.417969 30.539062 811.128906 32.027344 812.066406 31.621094 C 814.078125 30.6875 816.394531 30.304688 818.589844 30.65625 C 813.636719 35.53125 809.085938 41.34375 802.285156 43.238281 C 801.625 43.148438 801.945312 44.746094 802.902344 44.519531 Z M 802.902344 44.519531 " fill-opacity="1" fill-rule="nonzero"/></g></g></g><g clip-path="url(#e7328aef43)"><g clip-path="url(#bfe75bd574)"><g clip-path="url(#2330cc4aec)"><path fill="#2f5b4c" d="M 903.921875 78.667969 C 906.070312 85.921875 910.980469 91.667969 914.574219 98.105469 C 914.921875 98.761719 915.339844 99.445312 915.65625 100.175781 C 915.359375 100.058594 915.074219 100.121094 914.835938 100.285156 C 912.765625 101.800781 911.175781 103.855469 910.082031 106.1875 C 909.933594 106.5625 910.160156 107.085938 910.53125 107.234375 C 910.980469 107.410156 911.355469 107.125 911.578125 106.78125 C 912.554688 104.746094 914.054688 102.917969 915.8125 101.535156 C 915.945312 101.414062 916.003906 101.265625 916.035156 101.191406 C 917.03125 103.488281 917.816406 105.875 918.109375 108.414062 C 918.359375 110.847656 918.203125 113.207031 917.796875 115.554688 C 914.332031 116.433594 911.113281 118.015625 908.386719 120.3125 C 907.613281 120.957031 908.664062 122.238281 909.4375 121.59375 C 911.792969 119.582031 914.519531 118.152344 917.445312 117.316406 C 917.09375 119.082031 916.621094 120.710938 916.195312 122.445312 C 915.679688 124.40625 915.238281 126.394531 914.949219 128.441406 C 911.324219 129.949219 908.210938 132.351562 905.847656 135.484375 C 905.269531 136.292969 906.542969 137.226562 907.121094 136.417969 C 909.128906 133.753906 911.765625 131.679688 914.714844 130.339844 C 914.617188 131.683594 914.488281 133.101562 914.570312 134.433594 C 914.714844 137.34375 915.488281 139.984375 916.886719 142.355469 C 914.476562 144.949219 912.574219 148.003906 911.273438 151.292969 C 910.890625 152.265625 912.414062 152.785156 912.800781 151.8125 C 913.984375 148.820312 915.691406 146.035156 917.832031 143.679688 C 918.117188 144.054688 918.476562 144.453125 918.761719 144.828125 C 920.128906 146.40625 921.523438 147.910156 922.277344 149.9375 C 922.898438 151.652344 923.023438 153.519531 923 155.328125 C 922.914062 155.550781 922.851562 155.699219 922.945312 155.910156 C 920.367188 158.265625 917.914062 160.753906 915.730469 163.4375 C 915.074219 164.214844 916.421875 165.179688 917.003906 164.371094 C 918.800781 162.230469 920.75 160.144531 922.714844 158.238281 C 922.398438 161.660156 921.859375 164.996094 921.84375 168.535156 C 921.828125 168.789062 921.890625 169.074219 921.875 169.328125 C 921.695312 169.34375 921.457031 169.507812 921.324219 169.628906 C 919.199219 172.160156 917.386719 174.992188 915.949219 177.96875 C 915.800781 178.34375 916.027344 178.863281 916.402344 179.011719 C 916.851562 179.191406 917.222656 178.90625 917.445312 178.558594 C 918.632812 176 920.160156 173.664062 921.914062 171.417969 C 922.308594 180.050781 924.492188 188.527344 928.269531 196.25 C 928.753906 197.21875 930.167969 196.480469 929.761719 195.539062 C 926.164062 188.234375 924.101562 180.328125 923.574219 172.246094 C 925.417969 173.496094 927.039062 175.085938 928.3125 176.890625 C 928.929688 177.738281 930.136719 176.65625 929.59375 175.839844 C 927.957031 173.632812 925.875 171.6875 923.507812 170.230469 C 923.402344 166.125 923.878906 162.074219 924.386719 157.949219 C 924.398438 157.695312 924.414062 157.441406 924.425781 157.1875 C 926.796875 159.074219 928.941406 161.308594 930.816406 163.78125 C 931.433594 164.628906 932.636719 163.546875 932.097656 162.730469 C 929.933594 159.882812 927.476562 157.355469 924.613281 155.183594 C 924.675781 152.183594 924.203125 149.226562 922.457031 146.636719 C 921.585938 145.339844 920.476562 144.207031 919.546875 143.0625 C 923.023438 142.359375 926.628906 143.09375 929.519531 145.1875 C 930.402344 145.796875 931.261719 144.492188 930.453125 143.914062 C 927.023438 141.433594 922.585938 140.628906 918.527344 141.707031 C 917.445312 140.066406 916.808594 138.171875 916.457031 136.21875 C 916.105469 134.261719 916.1875 132.304688 916.375 130.304688 C 916.75 130.449219 917.183594 130.449219 917.691406 130.476562 C 918.453125 130.519531 919.109375 130.605469 919.8125 130.796875 C 921.320312 131.132812 922.714844 131.769531 924.046875 132.558594 C 924.929688 133.167969 925.820312 131.789062 924.980469 131.285156 C 923.753906 130.453125 922.363281 129.816406 920.882812 129.402344 C 920.179688 129.210938 919.371094 129.066406 918.640625 128.949219 C 918.3125 128.90625 917.878906 128.90625 917.550781 128.863281 C 917.371094 128.878906 916.9375 128.882812 916.742188 128.71875 C 916.667969 128.6875 916.667969 128.6875 916.59375 128.660156 C 916.855469 127.121094 917.117188 125.578125 917.5 124.175781 C 918.058594 121.886719 918.648438 119.523438 919.132812 117.207031 C 921.867188 118.375 924.445312 119.738281 926.898438 121.402344 C 927.785156 122.011719 928.675781 120.632812 927.835938 120.128906 C 925.257812 118.332031 922.414062 116.777344 919.5 115.621094 C 919.761719 114.082031 919.949219 112.511719 919.988281 110.886719 C 920.03125 107.269531 919.226562 103.835938 917.75 100.574219 C 920.53125 100.980469 923.433594 101.953125 924.710938 104.621094 C 925.121094 105.5625 926.609375 104.855469 926.203125 103.914062 C 924.515625 100.304688 920.554688 99.171875 916.980469 98.796875 C 913.445312 91.777344 907.863281 85.765625 905.609375 78.125 C 905.214844 77.363281 903.621094 77.683594 903.921875 78.667969 Z M 903.921875 78.667969 " fill-opacity="1" fill-rule="nonzero"/></g></g></g><g clip-path="url(#d5f4da90c9)"><g clip-path="url(#85080901a2)"><g clip-path="url(#07badf8126)"><path fill="#2f5b4c" d="M 948.210938 33.816406 C 948.054688 39.03125 949.34375 44.296875 951.976562 48.800781 C 952.019531 48.902344 952.097656 48.933594 952.140625 49.039062 C 952.035156 49.082031 951.902344 49.203125 951.796875 49.25 C 951.558594 49.414062 951.5 49.5625 951.515625 49.742188 C 951.488281 49.816406 951.488281 49.816406 951.457031 49.890625 C 949.429688 54.800781 947.390625 59.960938 947.828125 65.410156 C 947.921875 66.484375 949.519531 66.164062 949.425781 65.089844 C 949.019531 60 951.046875 55.089844 952.984375 50.410156 C 952.984375 50.410156 952.984375 50.410156 953.011719 50.332031 C 955.417969 53.878906 958.519531 56.75 962.027344 59.261719 C 960.261719 63.0625 958.726562 66.949219 957.367188 70.824219 C 957.054688 71.828125 958.582031 72.34375 958.890625 71.34375 C 960.144531 67.511719 961.625 63.773438 963.328125 60.121094 C 967.085938 62.644531 971.085938 65.003906 974.621094 67.875 C 974.621094 67.875 974.515625 67.917969 974.515625 67.917969 C 971.722656 71.484375 969.632812 75.675781 968.425781 80.042969 C 968.117188 81.042969 969.640625 81.5625 969.953125 80.558594 C 971.128906 76.269531 973.054688 72.273438 975.789062 68.855469 C 975.910156 68.988281 976.105469 69.152344 976.226562 69.285156 C 980.320312 73.152344 983.070312 78.222656 983.140625 83.957031 C 983.15625 84.570312 983.144531 85.257812 983.085938 85.839844 C 982.984375 85.886719 982.984375 85.886719 982.878906 85.929688 C 978.113281 89.234375 974.738281 94.042969 971.621094 98.867188 C 971.011719 99.75 972.390625 100.640625 972.894531 99.800781 C 975.703125 95.546875 978.71875 91.203125 982.738281 88.035156 C 981.992188 92.328125 980.308594 96.589844 980.726562 100.996094 C 980.839844 102.683594 981.367188 104.191406 982.148438 105.710938 C 982.121094 105.785156 982.015625 105.828125 981.988281 105.90625 C 979.75 110.46875 977.8125 115.152344 976.171875 119.953125 C 975.789062 120.925781 977.3125 121.441406 977.699219 120.46875 C 979.292969 116 981.113281 111.613281 983.15625 107.320312 C 984.074219 108.71875 985.199219 110.03125 986.488281 111.144531 C 989.59375 114.015625 993.214844 116.226562 996.511719 118.828125 C 996.707031 118.992188 996.902344 119.15625 997.023438 119.289062 C 995.144531 120.535156 993.75 122.753906 992.726562 124.683594 C 991.390625 127.183594 990.402344 129.90625 989.441406 132.554688 C 989.054688 133.527344 990.582031 134.042969 990.964844 133.070312 C 991.839844 130.648438 992.738281 128.148438 993.910156 125.84375 C 994.933594 123.914062 996.3125 121.515625 998.308594 120.402344 C 1000.664062 122.546875 1002.796875 125.03125 1003.644531 128.136719 C 1004.402344 131.03125 1004.054688 134.09375 1003.992188 137.097656 C 1003.980469 138.214844 1004.046875 139.367188 1004.035156 140.488281 C 1003.78125 140.472656 1003.574219 140.5625 1003.378906 140.832031 C 1000.214844 145.117188 998.890625 150.214844 997.640625 155.34375 C 997.40625 156.375 998.933594 156.894531 999.167969 155.863281 C 1000.285156 151.285156 1001.386719 146.53125 1004.074219 142.578125 C 1004.136719 143.726562 1004.203125 144.878906 1004.371094 145.980469 C 1004.992188 151.851562 1006.433594 157.609375 1008.503906 163.097656 C 1008.984375 164.5 1009.574219 165.859375 1010.160156 167.214844 C 1010.570312 168.15625 1012.058594 167.445312 1011.652344 166.507812 C 1009.226562 161.050781 1007.53125 155.277344 1006.550781 149.4375 C 1006.183594 147.304688 1005.921875 145.125 1005.761719 142.898438 C 1010.148438 145.152344 1014.402344 147.527344 1017.507812 151.261719 C 1018.152344 152.039062 1019.402344 151.0625 1018.789062 150.210938 C 1015.320312 146.074219 1010.546875 143.492188 1005.859375 141.121094 C 1005.84375 140.941406 1005.800781 140.839844 1005.859375 140.6875 C 1005.742188 137.703125 1005.984375 134.683594 1005.945312 131.726562 C 1005.777344 127.335938 1004.042969 123.621094 1000.925781 120.574219 C 1005.09375 121.183594 1009.738281 121.03125 1013.023438 123.886719 C 1013.800781 124.539062 1014.738281 123.265625 1013.957031 122.613281 C 1009.804688 118.894531 1003.867188 119.917969 998.871094 118.550781 C 998.796875 118.519531 998.796875 118.519531 998.691406 118.566406 C 996.277344 116.574219 993.628906 114.746094 991.082031 112.875 C 988.488281 110.898438 985.882812 108.742188 984.226562 105.925781 C 988.644531 104.386719 993.554688 103.992188 998.160156 105.035156 C 998.5625 105.105469 999.027344 105.03125 999.203125 104.582031 C 999.351562 104.207031 999.15625 103.613281 998.75 103.539062 C 993.640625 102.46875 988.398438 102.816406 983.566406 104.539062 C 983.519531 104.433594 983.429688 104.226562 983.382812 104.121094 C 981.285156 98.707031 984.085938 93.15625 984.8125 87.820312 C 984.84375 87.746094 984.828125 87.566406 984.855469 87.492188 C 987.5 87.585938 990.160156 87.859375 992.703125 88.429688 C 995.242188 89.003906 997.980469 89.738281 999.839844 91.597656 C 1000.589844 92.328125 1001.765625 91.324219 1001.121094 90.546875 C 999.066406 88.523438 996.3125 87.609375 993.546875 86.949219 C 990.78125 86.289062 987.898438 85.925781 985 85.816406 C 985.203125 81.140625 983.855469 76.457031 981.242188 72.566406 C 980.207031 71.035156 979.003906 69.695312 977.625 68.371094 C 981.777344 67.933594 986.210938 67.441406 989.746094 69.875 C 990.628906 70.484375 991.519531 69.105469 990.683594 68.601562 C 986.339844 65.585938 980.964844 66.488281 975.945312 66.929688 C 973.878906 65.160156 971.617188 63.660156 969.355469 62.160156 C 967.707031 61.074219 965.988281 59.960938 964.339844 58.878906 C 966.144531 58.035156 968.039062 57.398438 970.023438 56.972656 C 971.15625 56.730469 972.335938 56.589844 973.484375 56.527344 C 974.742188 56.417969 976.039062 56.410156 977.238281 56.886719 C 978.210938 57.269531 978.726562 55.742188 977.753906 55.359375 C 976.480469 54.855469 975.109375 54.832031 973.808594 54.835938 C 972.480469 54.917969 971.226562 55.027344 969.910156 55.285156 C 967.464844 55.789062 965.046875 56.648438 962.871094 57.777344 C 960.5625 56.175781 958.421875 54.375 956.574219 52.261719 C 955.808594 51.351562 955.121094 50.476562 954.488281 49.445312 C 957.097656 47.882812 960.125 47.003906 963.128906 47.066406 C 964.171875 47.046875 964.285156 45.449219 963.242188 45.46875 C 959.878906 45.4375 956.492188 46.347656 953.644531 48.074219 C 951.855469 44.945312 950.648438 41.441406 950.230469 37.902344 C 950.074219 36.542969 949.996094 35.214844 950.019531 33.839844 C 949.867188 32.914062 948.195312 32.773438 948.210938 33.816406 Z M 948.210938 33.816406 " fill-opacity="1" fill-rule="nonzero"/></g></g></g><g clip-path="url(#646c438ec8)"><g clip-path="url(#493a33ecd4)"><g clip-path="url(#a2e0d6a39b)"><path fill="#2f5b4c" d="M 951.988281 29.515625 C 953.992188 29.703125 956.070312 29.917969 958.175781 30.058594 C 958.175781 30.058594 958.25 30.089844 958.222656 30.164062 C 962.582031 33.789062 968.011719 35.589844 973.289062 37.332031 C 974.292969 37.640625 974.808594 36.117188 973.808594 35.808594 C 969.351562 34.390625 964.773438 32.839844 960.894531 30.183594 C 965.019531 30.253906 969.078125 30.046875 973.003906 29.089844 C 977.511719 31.910156 983.085938 32.902344 988.296875 31.761719 C 989.324219 31.5625 989.003906 29.964844 987.976562 30.164062 C 983.617188 31.121094 979.015625 30.515625 975.078125 28.4375 C 976.09375 28.0625 977.105469 27.683594 978.152344 27.230469 C 980.789062 26.027344 983.023438 24.3125 985.332031 22.632812 C 985.949219 23.914062 987.625 24.488281 988.867188 25.066406 C 991.15625 26.058594 993.550781 27.007812 995.957031 27.699219 C 996.960938 28.007812 997.476562 26.484375 996.472656 26.171875 C 994.394531 25.523438 992.421875 24.828125 990.429688 23.957031 C 989.53125 23.601562 988.636719 23.246094 987.796875 22.742188 C 987.378906 22.488281 986.734375 22.148438 986.613281 21.582031 C 987.804688 20.753906 988.996094 19.929688 990.277344 19.3125 C 994.316406 17.1875 999.019531 16.453125 1003.5625 17.210938 C 1003.816406 17.226562 1004.117188 17.34375 1004.371094 17.359375 C 1004.535156 17.597656 1004.835938 17.714844 1005.089844 17.730469 C 1005.03125 17.878906 1004.972656 18.027344 1004.988281 18.207031 C 1005.394531 23.300781 1007.773438 28.21875 1011.476562 31.757812 C 1011.792969 32.058594 1012.269531 32.160156 1012.644531 31.875 C 1012.910156 31.632812 1013.074219 31.007812 1012.757812 30.710938 C 1009.25 27.332031 1007.050781 22.828125 1006.628906 17.992188 C 1007.929688 18.417969 1009.171875 18.996094 1010.382812 19.648438 C 1012.660156 20.894531 1014.847656 22.367188 1017.210938 23.386719 C 1020.695312 24.851562 1024.417969 24.851562 1027.96875 23.746094 C 1030.746094 27.875 1034.136719 31.550781 1038.046875 34.566406 C 1038.828125 35.222656 1039.792969 33.875 1038.984375 33.292969 C 1035.371094 30.394531 1032.191406 27.0625 1029.546875 23.25 C 1035.140625 21.136719 1039.980469 17.425781 1045.710938 15.625 C 1045.933594 15.714844 1046.113281 15.699219 1046.324219 15.609375 C 1047.054688 19.878906 1048.925781 23.902344 1051.777344 27.195312 C 1052.421875 27.96875 1053.703125 26.917969 1053.054688 26.144531 C 1050.324219 22.988281 1048.546875 19.171875 1047.902344 15.109375 C 1048.007812 15.066406 1048.113281 15.019531 1048.1875 15.050781 C 1052.023438 14.316406 1055.910156 14.988281 1059.648438 16.035156 C 1060.394531 19.617188 1061.886719 23.0625 1064.035156 26.160156 C 1064.320312 26.53125 1064.859375 26.484375 1065.199219 26.273438 C 1065.574219 25.988281 1065.527344 25.453125 1065.316406 25.109375 C 1063.496094 22.488281 1062.203125 19.640625 1061.425781 16.566406 C 1062.054688 16.726562 1062.652344 16.964844 1063.28125 17.125 C 1068.261719 18.75 1073.332031 20.582031 1078.710938 20.542969 C 1079.757812 20.527344 1079.871094 18.925781 1078.824219 18.945312 C 1072.582031 18.984375 1066.835938 16.453125 1061.046875 14.683594 C 1061.078125 14.609375 1061.078125 14.609375 1061.179688 14.566406 C 1061.34375 14.371094 1061.476562 14.25 1061.640625 14.054688 C 1061.9375 13.738281 1062.339844 13.378906 1062.714844 13.09375 C 1063.457031 12.523438 1064.277344 11.984375 1065.066406 11.515625 C 1066.796875 10.644531 1068.660156 10.082031 1070.558594 9.882812 C 1070.992188 9.878906 1071.300781 9.3125 1071.195312 8.921875 C 1071.121094 8.460938 1070.699219 8.207031 1070.238281 8.285156 C 1067.65625 8.472656 1065.132812 9.378906 1063.019531 10.792969 C 1061.960938 11.5 1060.949219 12.308594 1060.085938 13.179688 C 1059.816406 13.421875 1059.519531 13.734375 1059.296875 14.078125 C 1056.710938 13.402344 1054.140625 12.90625 1051.433594 12.960938 C 1050.136719 12.964844 1048.851562 13.148438 1047.539062 13.410156 C 1047.492188 13.304688 1047.449219 13.199219 1047.375 13.171875 C 1048.542969 10.433594 1050.28125 8.003906 1052.601562 6.070312 C 1053.378906 5.425781 1052.328125 4.144531 1051.550781 4.789062 C 1048.695312 7.207031 1046.554688 10.425781 1045.316406 14 C 1040.257812 15.632812 1035.683594 18.667969 1030.824219 20.898438 C 1030.300781 21.125 1029.675781 21.394531 1029.152344 21.621094 C 1029.164062 20.933594 1029.253906 20.277344 1029.371094 19.546875 C 1029.558594 18.410156 1029.898438 17.332031 1030.238281 16.253906 C 1031.050781 13.980469 1032.132812 11.902344 1033.558594 10.042969 C 1034.136719 9.234375 1032.863281 8.296875 1032.285156 9.105469 C 1030.769531 11.191406 1029.496094 13.539062 1028.699219 15.992188 C 1028.300781 17.21875 1027.976562 18.476562 1027.726562 19.761719 C 1027.582031 20.566406 1027.507812 21.40625 1027.542969 22.195312 C 1025.363281 22.890625 1023.082031 23.199219 1020.734375 22.789062 C 1015.636719 21.898438 1011.753906 17.941406 1006.816406 16.421875 C 1006.667969 16.363281 1006.488281 16.378906 1006.339844 16.320312 C 1008.296875 12.683594 1011.585938 9.832031 1015.433594 8.414062 C 1016.449219 8.035156 1015.710938 6.617188 1014.726562 6.921875 C 1010.386719 8.492188 1006.738281 11.808594 1004.679688 15.921875 C 1001 15.160156 997.222656 15.308594 993.625 16.3125 C 990.882812 17.128906 988.511719 18.527344 986.261719 20.058594 C 987.007812 16.203125 988.609375 12.597656 991.046875 9.496094 C 991.699219 8.714844 990.351562 7.75 989.773438 8.558594 C 988.316406 10.492188 987.054688 12.585938 986.136719 14.90625 C 985.695312 16.027344 985.324219 17.179688 985.03125 18.359375 C 984.898438 18.914062 984.738281 19.542969 984.679688 20.125 C 984.605469 20.527344 984.457031 20.902344 984.566406 21.289062 C 983.613281 21.953125 982.628906 22.6875 981.601562 23.320312 C 978.980469 25.136719 976.160156 26.359375 973.265625 27.117188 C 972.753906 22.503906 973.929688 17.777344 976.679688 14.105469 C 977.257812 13.296875 975.984375 12.363281 975.40625 13.171875 C 972.40625 17.261719 971.125 22.464844 971.714844 27.539062 C 967.921875 28.375 963.9375 28.617188 959.945312 28.421875 C 959.976562 28.347656 960.007812 28.273438 960.035156 28.199219 C 960.171875 24.792969 961.070312 21.429688 962.835938 18.492188 C 963.371094 17.582031 962.066406 16.71875 961.5625 17.558594 C 959.707031 20.714844 958.617188 24.351562 958.464844 28.011719 C 958.4375 28.085938 958.480469 28.191406 958.527344 28.292969 C 956.390625 28.226562 954.238281 27.984375 952.085938 27.738281 C 951.117188 27.785156 951.003906 29.386719 951.988281 29.515625 Z M 951.988281 29.515625 " fill-opacity="1" fill-rule="nonzero"/></g></g></g></svg>