<svg xmlns="http://www.w3.org/2000/svg" xmlns:xlink="http://www.w3.org/1999/xlink" width="1366" zoomAndPan="magnify" viewBox="0 0 1024.5 576" height="768" preserveAspectRatio="xMidYMid meet" version="1.0"><defs><filter x="0%" y="0%" width="100%" height="100%" id="5dcc676e9a"><feColorMatrix values="0 0 0 0 1 0 0 0 0 1 0 0 0 0 1 0 0 0 1 0" color-interpolation-filters="sRGB"/></filter><clipPath id="ceb7da441c"><path d="M 0 0.140625 L 1024 0.140625 L 1024 575.859375 L 0 575.859375 Z M 0 0.140625 " clip-rule="nonzero"/></clipPath><mask id="724619aa91"><g filter="url(#5dcc676e9a)"><rect x="-102.45" width="1229.4" fill="#000000" y="-57.6" height="691.2" fill-opacity="0.65"/></g></mask><clipPath id="796a59099d"><path d="M 0 0.140625 L 1024 0.140625 L 1024 575.859375 L 0 575.859375 Z M 0 0.140625 " clip-rule="nonzero"/></clipPath><clipPath id="bcad93ab27"><path d="M 5.535156 -36.808594 L 1015.757812 -36.808594 C 1030.660156 -36.808594 1042.742188 -24.726562 1042.742188 -9.820312 L 1042.742188 561.433594 C 1042.742188 576.339844 1030.660156 588.421875 1015.757812 588.421875 L 5.535156 588.421875 C -9.371094 588.421875 -21.453125 576.339844 -21.453125 561.433594 L -21.453125 -9.820312 C -21.453125 -24.726562 -9.371094 -36.808594 5.535156 -36.808594 Z M 5.535156 -36.808594 " clip-rule="nonzero"/></clipPath><clipPath id="156f951126"><rect x="0" width="1024" y="0" height="576"/></clipPath><clipPath id="d6795c0c3c"><path d="M 0 0.140625 L 1024 0.140625 L 1024 182.75 L 0 182.75 Z M 0 0.140625 " clip-rule="nonzero"/></clipPath><clipPath id="991d95d442"><path d="M 511.503906 -1044.296875 C 112.460938 -1044.296875 -211.027344 -769.613281 -211.027344 -430.773438 C -211.027344 -91.933594 112.460938 182.75 511.503906 182.75 C 910.546875 182.75 1234.035156 -91.933594 1234.035156 -430.773438 C 1234.035156 -769.613281 910.546875 -1044.296875 511.503906 -1044.296875 Z M 511.503906 -1044.296875 " clip-rule="nonzero"/></clipPath></defs><g clip-path="url(#ceb7da441c)"><path fill="#ffffff" d="M 0 0.140625 L 1024 0.140625 L 1024 575.859375 L 0 575.859375 Z M 0 0.140625 " fill-opacity="1" fill-rule="nonzero"/><path fill="#76a458" d="M 0 0.140625 L 1024 0.140625 L 1024 575.859375 L 0 575.859375 Z M 0 0.140625 " fill-opacity="1" fill-rule="nonzero"/><g mask="url(#724619aa91)"><g transform="matrix(1, 0, 0, 1, 0, 0.000000000000055289)"><g clip-path="url(#156f951126)"><g clip-path="url(#796a59099d)"><g clip-path="url(#bcad93ab27)"><rect x="-225.39" width="1475.28" fill="#76a458" height="829.44" y="-126.72" fill-opacity="1"/></g></g></g></g></g></g><g clip-path="url(#d6795c0c3c)"><g clip-path="url(#991d95d442)"><path fill="#2f5b4c" d="M -211.027344 -1044.296875 L 1231.710938 -1044.296875 L 1231.710938 182.75 L -211.027344 182.75 Z M -211.027344 -1044.296875 " fill-opacity="1" fill-rule="nonzero"/></g></g></svg>